<svg xmlns="http://www.w3.org/2000/svg" xmlns:xlink="http://www.w3.org/1999/xlink" width="800" zoomAndPan="magnify" viewBox="0 0 600 599.999999" height="800" preserveAspectRatio="xMidYMid meet" version="1.0"><defs><g/><clipPath id="9b4fa83469"><path d="M 79.765625 79.765625 L 520.234375 79.765625 L 520.234375 520.234375 L 79.765625 520.234375 Z M 79.765625 79.765625 " clip-rule="nonzero"/></clipPath><clipPath id="6c12ef697c"><path d="M 300 79.765625 C 421.632812 79.765625 520.234375 178.367188 520.234375 300 C 520.234375 421.632812 421.632812 520.234375 300 520.234375 C 178.367188 520.234375 79.765625 421.632812 79.765625 300 C 79.765625 178.367188 178.367188 79.765625 300 79.765625 L 300 132.621094 C 207.558594 132.621094 132.621094 207.558594 132.621094 300 C 132.621094 392.441406 207.558594 467.378906 300 467.378906 C 392.441406 467.378906 467.378906 392.441406 467.378906 300 C 467.378906 207.558594 392.441406 132.621094 300 132.621094 Z M 300 79.765625 " clip-rule="nonzero"/></clipPath><clipPath id="109eb97e8e"><path d="M 79 81.484375 L 521 81.484375 L 521 521 L 79 521 Z M 79 81.484375 " clip-rule="nonzero"/></clipPath><clipPath id="d022871f0d"><path d="M 330.03125 81.824219 C 431.734375 95.820312 510.277344 178.234375 519.371094 280.492188 C 528.460938 382.753906 465.695312 477.730469 368.054688 509.457031 C 270.417969 541.179688 163.8125 501.234375 111.0625 413.160156 C 58.3125 325.085938 73.410156 212.25 147.460938 141.144531 C 154.273438 134.601562 164.054688 132.195312 173.125 134.820312 C 182.191406 137.449219 189.167969 144.71875 191.425781 153.886719 C 193.6875 163.054688 190.882812 172.730469 184.070312 179.269531 C 127.792969 233.308594 116.316406 319.066406 156.40625 386.003906 C 196.496094 452.9375 277.519531 483.296875 351.722656 459.1875 C 425.929688 435.074219 473.632812 362.894531 466.722656 285.175781 C 459.808594 207.457031 400.121094 144.824219 322.824219 134.183594 C 308.363281 132.195312 298.257812 118.859375 300.246094 104.398438 C 302.238281 89.941406 315.574219 79.832031 330.03125 81.824219 Z M 330.03125 81.824219 " clip-rule="nonzero"/></clipPath></defs><g clip-path="url(#9b4fa83469)"><g clip-path="url(#6c12ef697c)"><path fill="#d1d2d2" d="M 79.765625 79.765625 L 520.234375 79.765625 L 520.234375 520.234375 L 79.765625 520.234375 Z M 79.765625 79.765625 " fill-opacity="1" fill-rule="nonzero"/></g></g><g clip-path="url(#109eb97e8e)"><g clip-path="url(#d022871f0d)"><path fill="#8339c6" d="M 79.765625 79.765625 L 520.234375 79.765625 L 520.234375 520.234375 L 79.765625 520.234375 Z M 79.765625 79.765625 " fill-opacity="1" fill-rule="nonzero"/></g></g><g fill="#ffffff" fill-opacity="1"><g transform="translate(211.505456, 332.50543)"><g><path d="M 46.453125 -35.453125 C 46.453125 -23.265625 43.882812 -14.164062 38.75 -8.15625 C 33.625 -2.15625 25.851562 0.84375 15.4375 0.84375 C 11.769531 0.84375 8.992188 0.644531 7.109375 0.25 L 7.109375 -10.234375 C 9.472656 -9.640625 11.957031 -9.34375 14.5625 -9.34375 C 18.925781 -9.34375 22.519531 -9.984375 25.34375 -11.265625 C 28.164062 -12.554688 30.320312 -14.578125 31.8125 -17.328125 C 33.3125 -20.078125 34.175781 -23.863281 34.40625 -28.6875 L 33.890625 -28.6875 C 32.253906 -26.03125 30.363281 -24.164062 28.21875 -23.09375 C 26.070312 -22.03125 23.394531 -21.5 20.1875 -21.5 C 14.789062 -21.5 10.539062 -23.222656 7.4375 -26.671875 C 4.34375 -30.128906 2.796875 -34.929688 2.796875 -41.078125 C 2.796875 -47.710938 4.675781 -52.953125 8.4375 -56.796875 C 12.207031 -60.648438 17.335938 -62.578125 23.828125 -62.578125 C 28.390625 -62.578125 32.382812 -61.503906 35.8125 -59.359375 C 39.238281 -57.222656 41.867188 -54.113281 43.703125 -50.03125 C 45.535156 -45.957031 46.453125 -41.097656 46.453125 -35.453125 Z M 24.078125 -52.09375 C 21.367188 -52.09375 19.25 -51.160156 17.71875 -49.296875 C 16.195312 -47.429688 15.4375 -44.75 15.4375 -41.25 C 15.4375 -38.257812 16.128906 -35.890625 17.515625 -34.140625 C 18.898438 -32.390625 21.003906 -31.515625 23.828125 -31.515625 C 26.472656 -31.515625 28.738281 -32.382812 30.625 -34.125 C 32.519531 -35.863281 33.46875 -37.859375 33.46875 -40.109375 C 33.46875 -43.460938 32.585938 -46.296875 30.828125 -48.609375 C 29.066406 -50.929688 26.816406 -52.09375 24.078125 -52.09375 Z M 24.078125 -52.09375 "/></g></g></g><g fill="#ffffff" fill-opacity="1"><g transform="translate(260.962412, 332.50543)"><g><path d="M 46.375 -30.9375 C 46.375 -20.125 44.601562 -12.125 41.0625 -6.9375 C 37.519531 -1.75 32.066406 0.84375 24.703125 0.84375 C 17.566406 0.84375 12.1875 -1.832031 8.5625 -7.1875 C 4.9375 -12.550781 3.125 -20.46875 3.125 -30.9375 C 3.125 -41.851562 4.882812 -49.894531 8.40625 -55.0625 C 11.9375 -60.238281 17.367188 -62.828125 24.703125 -62.828125 C 31.847656 -62.828125 37.242188 -60.117188 40.890625 -54.703125 C 44.546875 -49.296875 46.375 -41.375 46.375 -30.9375 Z M 16.125 -30.9375 C 16.125 -23.34375 16.78125 -17.898438 18.09375 -14.609375 C 19.40625 -11.328125 21.609375 -9.6875 24.703125 -9.6875 C 27.753906 -9.6875 29.957031 -11.347656 31.3125 -14.671875 C 32.664062 -18.003906 33.34375 -23.425781 33.34375 -30.9375 C 33.34375 -38.519531 32.65625 -43.96875 31.28125 -47.28125 C 29.914062 -50.59375 27.722656 -52.25 24.703125 -52.25 C 21.628906 -52.25 19.429688 -50.59375 18.109375 -47.28125 C 16.785156 -43.96875 16.125 -38.519531 16.125 -30.9375 Z M 16.125 -30.9375 "/></g></g></g><g fill="#ffffff" fill-opacity="1"><g transform="translate(310.419368, 332.50543)"><g><path d="M 13.328125 -43.328125 C 13.328125 -39.742188 13.644531 -37.070312 14.28125 -35.3125 C 14.914062 -33.550781 15.9375 -32.671875 17.34375 -32.671875 C 20.050781 -32.671875 21.40625 -36.222656 21.40625 -43.328125 C 21.40625 -50.378906 20.050781 -53.90625 17.34375 -53.90625 C 15.9375 -53.90625 14.914062 -53.035156 14.28125 -51.296875 C 13.644531 -49.566406 13.328125 -46.910156 13.328125 -43.328125 Z M 32.078125 -43.40625 C 32.078125 -36.925781 30.820312 -32.054688 28.3125 -28.796875 C 25.800781 -25.535156 22.117188 -23.90625 17.265625 -23.90625 C 12.609375 -23.90625 9.007812 -25.578125 6.46875 -28.921875 C 3.9375 -32.265625 2.671875 -37.09375 2.671875 -43.40625 C 2.671875 -56.300781 7.535156 -62.75 17.265625 -62.75 C 22.035156 -62.75 25.695312 -61.078125 28.25 -57.734375 C 30.800781 -54.390625 32.078125 -49.613281 32.078125 -43.40625 Z M 61.1875 -61.859375 L 26.875 0 L 16.71875 0 L 51.03125 -61.859375 Z M 56.65625 -18.625 C 56.65625 -15.039062 56.972656 -12.363281 57.609375 -10.59375 C 58.242188 -8.832031 59.265625 -7.953125 60.671875 -7.953125 C 63.378906 -7.953125 64.734375 -11.507812 64.734375 -18.625 C 64.734375 -25.675781 63.378906 -29.203125 60.671875 -29.203125 C 59.265625 -29.203125 58.242188 -28.332031 57.609375 -26.59375 C 56.972656 -24.851562 56.65625 -22.195312 56.65625 -18.625 Z M 75.40625 -18.703125 C 75.40625 -12.242188 74.148438 -7.382812 71.640625 -4.125 C 69.128906 -0.863281 65.445312 0.765625 60.59375 0.765625 C 55.9375 0.765625 52.335938 -0.90625 49.796875 -4.25 C 47.265625 -7.59375 46 -12.410156 46 -18.703125 C 46 -31.585938 50.863281 -38.03125 60.59375 -38.03125 C 65.363281 -38.03125 69.023438 -36.359375 71.578125 -33.015625 C 74.128906 -29.679688 75.40625 -24.910156 75.40625 -18.703125 Z M 75.40625 -18.703125 "/></g></g></g></svg>