<svg xmlns="http://www.w3.org/2000/svg" xmlns:xlink="http://www.w3.org/1999/xlink" width="800" zoomAndPan="magnify" viewBox="0 0 600 599.999999" height="800" preserveAspectRatio="xMidYMid meet" version="1.0"><path fill="#8339c6" d="M 427.882812 162.460938 C 423.140625 162.429688 418.414062 162.65625 413.699219 163.140625 C 408.984375 163.625 404.308594 164.363281 399.675781 165.355469 C 395.039062 166.347656 390.472656 167.585938 385.972656 169.078125 C 381.472656 170.566406 377.066406 172.296875 372.753906 174.265625 C 368.445312 176.234375 364.25 178.429688 360.179688 180.855469 C 356.105469 183.28125 352.179688 185.921875 348.394531 188.773438 C 344.609375 191.628906 340.988281 194.675781 337.535156 197.925781 C 334.082031 201.171875 330.816406 204.597656 327.738281 208.199219 L 308.34375 230.535156 L 351.628906 280.527344 L 377.15625 251.070312 C 378.714844 249.25 380.371094 247.515625 382.121094 245.871094 C 383.871094 244.230469 385.707031 242.683594 387.621094 241.242188 C 389.539062 239.796875 391.53125 238.460938 393.59375 237.234375 C 395.65625 236.007812 397.78125 234.894531 399.964844 233.898438 C 402.148438 232.902344 404.378906 232.023438 406.65625 231.269531 C 408.9375 230.515625 411.25 229.886719 413.597656 229.386719 C 415.945312 228.882812 418.3125 228.507812 420.699219 228.261719 C 423.085938 228.015625 425.480469 227.902344 427.882812 227.917969 C 428.957031 227.902344 430.03125 227.914062 431.105469 227.953125 C 432.179688 227.992188 433.253906 228.054688 434.324219 228.148438 C 435.394531 228.238281 436.464844 228.359375 437.53125 228.503906 C 438.59375 228.648438 439.65625 228.816406 440.714844 229.015625 C 441.769531 229.210938 442.820312 229.4375 443.867188 229.683594 C 444.914062 229.933594 445.953125 230.210938 446.984375 230.511719 C 448.019531 230.8125 449.042969 231.136719 450.058594 231.488281 C 451.074219 231.839844 452.082031 232.214844 453.078125 232.617188 C 454.078125 233.019531 455.0625 233.445312 456.039062 233.894531 C 457.015625 234.34375 457.980469 234.820312 458.933594 235.316406 C 459.886719 235.8125 460.828125 236.335938 461.753906 236.878906 C 462.679688 237.425781 463.59375 237.992188 464.492188 238.582031 C 465.390625 239.171875 466.277344 239.78125 467.144531 240.417969 C 468.015625 241.050781 468.867188 241.703125 469.703125 242.378906 C 470.539062 243.054688 471.359375 243.75 472.160156 244.46875 C 472.960938 245.183594 473.746094 245.921875 474.511719 246.675781 C 475.277344 247.429688 476.023438 248.203125 476.75 248.996094 C 477.476562 249.789062 478.183594 250.597656 478.871094 251.425781 C 479.558594 252.25 480.222656 253.09375 480.871094 253.957031 C 481.515625 254.816406 482.140625 255.691406 482.742188 256.582031 C 483.34375 257.472656 483.921875 258.378906 484.480469 259.296875 C 485.035156 260.21875 485.570312 261.148438 486.082031 262.097656 C 486.59375 263.042969 487.078125 264 487.542969 264.96875 C 488.007812 265.941406 488.445312 266.921875 488.859375 267.914062 C 489.273438 268.90625 489.664062 269.90625 490.03125 270.917969 C 490.394531 271.929688 490.734375 272.949219 491.050781 273.976562 C 491.363281 275.003906 491.652344 276.042969 491.917969 277.082031 C 492.179688 278.125 492.417969 279.175781 492.628906 280.226562 C 492.839844 281.28125 493.027344 282.339844 493.1875 283.40625 C 493.34375 284.46875 493.476562 285.535156 493.585938 286.605469 C 493.691406 287.675781 493.769531 288.746094 493.824219 289.820312 C 493.875 290.894531 493.902344 291.96875 493.902344 293.042969 C 493.902344 294.121094 493.875 295.195312 493.824219 296.269531 C 493.769531 297.34375 493.691406 298.414062 493.585938 299.484375 C 493.476562 300.554688 493.34375 301.621094 493.1875 302.683594 C 493.027344 303.746094 492.839844 304.804688 492.628906 305.859375 C 492.417969 306.914062 492.179688 307.960938 491.917969 309.003906 C 491.652344 310.046875 491.363281 311.082031 491.050781 312.109375 C 490.734375 313.140625 490.394531 314.160156 490.03125 315.167969 C 489.664062 316.179688 489.273438 317.183594 488.859375 318.175781 C 488.445312 319.167969 488.007812 320.148438 487.542969 321.117188 C 487.078125 322.089844 486.59375 323.046875 486.082031 323.992188 C 485.570312 324.9375 485.035156 325.871094 484.480469 326.789062 C 483.921875 327.710938 483.34375 328.617188 482.742188 329.507812 C 482.140625 330.398438 481.515625 331.273438 480.871094 332.132812 C 480.222656 332.992188 479.558594 333.835938 478.871094 334.664062 C 478.183594 335.492188 477.476562 336.300781 476.75 337.09375 C 476.023438 337.886719 475.277344 338.660156 474.511719 339.414062 C 473.746094 340.167969 472.960938 340.902344 472.160156 341.621094 C 471.359375 342.335938 470.539062 343.03125 469.703125 343.707031 C 468.867188 344.382812 468.015625 345.039062 467.144531 345.671875 C 466.277344 346.304688 465.390625 346.917969 464.492188 347.507812 C 463.59375 348.097656 462.679688 348.664062 461.753906 349.207031 C 460.828125 349.753906 459.886719 350.273438 458.933594 350.773438 C 457.980469 351.269531 457.015625 351.742188 456.039062 352.195312 C 455.0625 352.644531 454.078125 353.070312 453.078125 353.472656 C 452.082031 353.871094 451.074219 354.25 450.058594 354.601562 C 449.042969 354.953125 448.019531 355.277344 446.984375 355.578125 C 445.953125 355.878906 444.914062 356.152344 443.867188 356.402344 C 442.820312 356.652344 441.769531 356.875 440.714844 357.074219 C 439.65625 357.269531 438.59375 357.441406 437.53125 357.585938 C 436.464844 357.730469 435.394531 357.847656 434.324219 357.941406 C 433.253906 358.03125 432.179688 358.097656 431.105469 358.136719 C 430.03125 358.175781 428.957031 358.1875 427.882812 358.171875 C 425.488281 358.1875 423.101562 358.074219 420.722656 357.828125 C 418.34375 357.585938 415.980469 357.214844 413.640625 356.714844 C 411.300781 356.210938 408.996094 355.585938 406.726562 354.835938 C 404.453125 354.085938 402.230469 353.210938 400.050781 352.21875 C 397.875 351.226562 395.757812 350.117188 393.703125 348.894531 C 391.644531 347.667969 389.664062 346.339844 387.75 344.898438 C 385.839844 343.460938 384.011719 341.921875 382.269531 340.28125 C 380.523438 338.644531 378.875 336.917969 377.316406 335.097656 C 282.523438 225.640625 327.5625 277.789062 267.355469 208.117188 C 264.269531 204.519531 261 201.101562 257.542969 197.859375 C 254.089844 194.621094 250.46875 191.574219 246.679688 188.726562 C 242.894531 185.878906 238.964844 183.246094 234.890625 180.824219 C 230.820312 178.402344 226.628906 176.210938 222.316406 174.246094 C 218.003906 172.28125 213.601562 170.554688 209.101562 169.066406 C 204.605469 167.582031 200.039062 166.34375 195.40625 165.351562 C 190.773438 164.359375 186.097656 163.625 181.386719 163.140625 C 176.671875 162.65625 171.945312 162.433594 167.210938 162.460938 C 165.0625 162.449219 162.917969 162.484375 160.773438 162.578125 C 158.628906 162.667969 156.488281 162.8125 154.351562 163.007812 C 152.210938 163.207031 150.082031 163.453125 147.957031 163.757812 C 145.832031 164.058594 143.714844 164.414062 141.609375 164.820312 C 139.5 165.226562 137.402344 165.683594 135.320312 166.191406 C 133.234375 166.703125 131.164062 167.261719 129.105469 167.875 C 127.046875 168.484375 125.007812 169.148438 122.980469 169.859375 C 120.957031 170.574219 118.949219 171.335938 116.964844 172.144531 C 114.976562 172.957031 113.011719 173.816406 111.066406 174.726562 C 109.121094 175.632812 107.199219 176.589844 105.300781 177.589844 C 103.40625 178.59375 101.53125 179.644531 99.6875 180.738281 C 97.839844 181.832031 96.023438 182.972656 94.234375 184.160156 C 92.441406 185.34375 90.683594 186.570312 88.953125 187.84375 C 87.226562 189.113281 85.527344 190.429688 83.863281 191.785156 C 82.199219 193.140625 80.570312 194.535156 78.972656 195.96875 C 77.378906 197.40625 75.820312 198.878906 74.296875 200.390625 C 72.773438 201.90625 71.289062 203.453125 69.84375 205.039062 C 68.394531 206.625 66.988281 208.246094 65.621094 209.902344 C 64.257812 211.554688 62.929688 213.246094 61.648438 214.964844 C 60.363281 216.683594 59.125 218.4375 57.925781 220.21875 C 56.730469 222 55.578125 223.808594 54.46875 225.648438 C 53.363281 227.484375 52.300781 229.351562 51.285156 231.242188 C 50.269531 233.132812 49.300781 235.046875 48.378906 236.984375 C 47.457031 238.925781 46.585938 240.882812 45.757812 242.867188 C 44.933594 244.847656 44.160156 246.847656 43.433594 248.867188 C 42.707031 250.886719 42.03125 252.925781 41.40625 254.976562 C 40.78125 257.03125 40.203125 259.097656 39.679688 261.179688 C 39.15625 263.261719 38.683594 265.355469 38.265625 267.460938 C 37.84375 269.5625 37.476562 271.679688 37.160156 273.800781 C 36.84375 275.925781 36.578125 278.054688 36.367188 280.1875 C 36.15625 282.324219 36 284.464844 35.894531 286.609375 C 35.785156 288.753906 35.734375 290.898438 35.734375 293.042969 C 35.734375 295.191406 35.785156 297.335938 35.894531 299.480469 C 36 301.625 36.15625 303.761719 36.367188 305.898438 C 36.578125 308.035156 36.84375 310.164062 37.160156 312.289062 C 37.476562 314.410156 37.84375 316.523438 38.265625 318.628906 C 38.683594 320.734375 39.15625 322.828125 39.679688 324.910156 C 40.203125 326.988281 40.78125 329.058594 41.40625 331.109375 C 42.03125 333.164062 42.707031 335.199219 43.433594 337.21875 C 44.160156 339.238281 44.933594 341.242188 45.757812 343.222656 C 46.585938 345.203125 47.457031 347.164062 48.378906 349.101562 C 49.300781 351.042969 50.269531 352.957031 51.285156 354.847656 C 52.300781 356.738281 53.363281 358.601562 54.46875 360.441406 C 55.578125 362.277344 56.730469 364.089844 57.925781 365.871094 C 59.125 367.652344 60.363281 369.402344 61.648438 371.125 C 62.929688 372.84375 64.257812 374.53125 65.621094 376.1875 C 66.988281 377.84375 68.394531 379.460938 69.84375 381.046875 C 71.289062 382.632812 72.773438 384.183594 74.296875 385.695312 C 75.820312 387.207031 77.378906 388.683594 78.972656 390.117188 C 80.570312 391.554688 82.199219 392.949219 83.863281 394.304688 C 85.527344 395.660156 87.226562 396.972656 88.953125 398.246094 C 90.683594 399.515625 92.441406 400.746094 94.234375 401.929688 C 96.023438 403.113281 97.839844 404.253906 99.6875 405.351562 C 101.53125 406.445312 103.40625 407.496094 105.300781 408.496094 C 107.199219 409.5 109.121094 410.457031 111.066406 411.363281 C 113.011719 412.273438 114.976562 413.132812 116.964844 413.941406 C 118.949219 414.753906 120.957031 415.515625 122.980469 416.226562 C 125.007812 416.941406 127.046875 417.601562 129.105469 418.214844 C 131.164062 418.824219 133.234375 419.386719 135.320312 419.894531 C 137.402344 420.40625 139.5 420.863281 141.609375 421.269531 C 143.714844 421.675781 145.832031 422.03125 147.957031 422.332031 C 150.082031 422.632812 152.210938 422.882812 154.351562 423.078125 C 156.488281 423.277344 158.628906 423.421875 160.773438 423.511719 C 162.917969 423.601562 165.0625 423.640625 167.210938 423.625 C 171.949219 423.65625 176.675781 423.429688 181.390625 422.949219 C 186.105469 422.464844 190.78125 421.726562 195.417969 420.734375 C 200.050781 419.742188 204.617188 418.5 209.117188 417.011719 C 213.617188 415.523438 218.023438 413.792969 222.335938 411.824219 C 226.648438 409.855469 230.839844 407.65625 234.910156 405.230469 C 238.984375 402.808594 242.914062 400.167969 246.699219 397.316406 C 250.484375 394.460938 254.101562 391.410156 257.554688 388.164062 C 261.007812 384.917969 264.273438 381.492188 267.355469 377.890625 L 286.746094 355.554688 L 243.464844 305.5625 L 217.9375 335.015625 C 216.375 336.839844 214.71875 338.574219 212.96875 340.214844 C 211.21875 341.859375 209.386719 343.402344 207.46875 344.847656 C 205.550781 346.292969 203.558594 347.628906 201.496094 348.855469 C 199.433594 350.082031 197.3125 351.195312 195.128906 352.191406 C 192.945312 353.1875 190.710938 354.0625 188.433594 354.816406 C 186.15625 355.570312 183.839844 356.199219 181.496094 356.703125 C 179.148438 357.207031 176.78125 357.582031 174.390625 357.824219 C 172.003906 358.070312 169.609375 358.1875 167.210938 358.171875 C 166.132812 358.1875 165.058594 358.175781 163.984375 358.136719 C 162.910156 358.097656 161.835938 358.03125 160.765625 357.941406 C 159.695312 357.847656 158.625 357.730469 157.5625 357.585938 C 156.496094 357.441406 155.433594 357.269531 154.378906 357.074219 C 153.320312 356.875 152.269531 356.652344 151.222656 356.402344 C 150.175781 356.152344 149.136719 355.878906 148.105469 355.578125 C 147.074219 355.277344 146.050781 354.953125 145.03125 354.601562 C 144.015625 354.25 143.011719 353.871094 142.011719 353.472656 C 141.015625 353.070312 140.027344 352.644531 139.050781 352.195312 C 138.074219 351.742188 137.109375 351.269531 136.15625 350.773438 C 135.203125 350.273438 134.265625 349.753906 133.335938 349.207031 C 132.410156 348.664062 131.496094 348.097656 130.597656 347.507812 C 129.699219 346.917969 128.816406 346.304688 127.945312 345.671875 C 127.078125 345.039062 126.226562 344.382812 125.386719 343.707031 C 124.550781 343.03125 123.734375 342.335938 122.929688 341.621094 C 122.128906 340.902344 121.34375 340.167969 120.582031 339.414062 C 119.816406 338.65625 119.070312 337.882812 118.339844 337.09375 C 117.613281 336.300781 116.90625 335.492188 116.21875 334.664062 C 115.53125 333.835938 114.867188 332.992188 114.222656 332.132812 C 113.578125 331.273438 112.953125 330.398438 112.351562 329.507812 C 111.75 328.617188 111.167969 327.710938 110.613281 326.789062 C 110.054688 325.871094 109.519531 324.9375 109.011719 323.992188 C 108.5 323.046875 108.011719 322.089844 107.550781 321.117188 C 107.085938 320.148438 106.644531 319.167969 106.230469 318.175781 C 105.816406 317.183594 105.425781 316.179688 105.0625 315.167969 C 104.695312 314.160156 104.355469 313.140625 104.042969 312.109375 C 103.726562 311.082031 103.4375 310.046875 103.175781 309.003906 C 102.910156 307.960938 102.671875 306.914062 102.460938 305.859375 C 102.25 304.804688 102.066406 303.746094 101.90625 302.683594 C 101.746094 301.621094 101.613281 300.554688 101.507812 299.484375 C 101.402344 298.414062 101.320312 297.339844 101.269531 296.269531 C 101.214844 295.195312 101.1875 294.121094 101.1875 293.042969 C 101.1875 291.96875 101.214844 290.894531 101.269531 289.820312 C 101.320312 288.746094 101.402344 287.675781 101.507812 286.605469 C 101.613281 285.535156 101.746094 284.46875 101.90625 283.40625 C 102.066406 282.339844 102.25 281.28125 102.460938 280.230469 C 102.671875 279.175781 102.910156 278.125 103.175781 277.082031 C 103.4375 276.042969 103.726562 275.007812 104.042969 273.976562 C 104.355469 272.949219 104.695312 271.929688 105.0625 270.917969 C 105.425781 269.90625 105.816406 268.90625 106.230469 267.914062 C 106.644531 266.921875 107.085938 265.941406 107.550781 264.96875 C 108.011719 264 108.5 263.042969 109.011719 262.097656 C 109.519531 261.148438 110.054688 260.21875 110.613281 259.296875 C 111.167969 258.378906 111.75 257.472656 112.351562 256.582031 C 112.953125 255.691406 113.578125 254.816406 114.222656 253.957031 C 114.867188 253.09375 115.53125 252.25 116.21875 251.425781 C 116.90625 250.597656 117.613281 249.789062 118.339844 248.996094 C 119.070312 248.203125 119.816406 247.429688 120.582031 246.675781 C 121.34375 245.921875 122.128906 245.183594 122.929688 244.46875 C 123.734375 243.75 124.550781 243.054688 125.386719 242.378906 C 126.226562 241.703125 127.078125 241.050781 127.945312 240.417969 C 128.816406 239.78125 129.699219 239.171875 130.597656 238.582031 C 131.496094 237.992188 132.410156 237.425781 133.335938 236.878906 C 134.265625 236.335938 135.203125 235.816406 136.15625 235.316406 C 137.109375 234.820312 138.074219 234.34375 139.050781 233.894531 C 140.027344 233.445312 141.015625 233.019531 142.011719 232.617188 C 143.011719 232.214844 144.015625 231.839844 145.03125 231.488281 C 146.050781 231.136719 147.074219 230.8125 148.105469 230.511719 C 149.136719 230.210938 150.175781 229.933594 151.222656 229.683594 C 152.269531 229.4375 153.320312 229.210938 154.378906 229.015625 C 155.433594 228.816406 156.496094 228.648438 157.5625 228.503906 C 158.625 228.359375 159.695312 228.238281 160.765625 228.148438 C 161.835938 228.054688 162.910156 227.992188 163.984375 227.953125 C 165.058594 227.914062 166.132812 227.902344 167.210938 227.917969 C 169.601562 227.902344 171.988281 228.015625 174.367188 228.257812 C 176.75 228.503906 179.109375 228.875 181.449219 229.375 C 183.789062 229.875 186.09375 230.5 188.367188 231.253906 C 190.636719 232.003906 192.863281 232.875 195.039062 233.871094 C 197.214844 234.863281 199.332031 235.972656 201.386719 237.195312 C 203.445312 238.417969 205.429688 239.75 207.339844 241.191406 C 209.25 242.628906 211.078125 244.167969 212.824219 245.804688 C 214.566406 247.445312 216.214844 249.171875 217.773438 250.988281 C 312.566406 360.449219 267.527344 308.300781 327.738281 377.972656 C 329.5 380.074219 331.332031 382.117188 333.222656 384.105469 C 335.117188 386.09375 337.070312 388.019531 339.085938 389.882812 C 341.097656 391.75 343.167969 393.546875 345.296875 395.28125 C 347.421875 397.019531 349.601562 398.683594 351.835938 400.28125 C 354.066406 401.878906 356.347656 403.40625 358.671875 404.859375 C 361 406.316406 363.371094 407.695312 365.785156 409.003906 C 368.199219 410.308594 370.652344 411.535156 373.144531 412.6875 C 375.636719 413.839844 378.160156 414.914062 380.71875 415.90625 C 383.277344 416.902344 385.867188 417.8125 388.480469 418.644531 C 391.097656 419.476562 393.738281 420.222656 396.398438 420.886719 C 399.0625 421.554688 401.742188 422.136719 404.445312 422.632812 C 407.144531 423.128906 409.855469 423.542969 412.582031 423.867188 C 415.304688 424.195312 418.039062 424.433594 420.777344 424.589844 C 423.519531 424.746094 426.261719 424.816406 429.007812 424.796875 C 431.75 424.78125 434.492188 424.679688 437.230469 424.488281 C 439.96875 424.300781 442.699219 424.023438 445.421875 423.664062 C 448.140625 423.304688 450.847656 422.859375 453.542969 422.328125 C 456.234375 421.796875 458.90625 421.183594 461.5625 420.484375 C 464.21875 419.789062 466.847656 419.007812 469.453125 418.144531 C 472.058594 417.28125 474.632812 416.335938 477.179688 415.3125 C 479.726562 414.285156 482.238281 413.183594 484.714844 412 C 487.191406 410.816406 489.628906 409.558594 492.027344 408.222656 C 494.425781 406.886719 496.777344 405.476562 499.085938 403.992188 C 501.398438 402.507812 503.65625 400.957031 505.871094 399.328125 C 508.082031 397.703125 510.238281 396.011719 512.34375 394.25 C 514.449219 392.488281 516.5 390.664062 518.492188 388.773438 C 520.480469 386.886719 522.410156 384.933594 524.28125 382.925781 C 526.148438 380.914062 527.953125 378.847656 529.691406 376.722656 C 531.429688 374.597656 533.097656 372.421875 534.703125 370.195312 C 536.304688 367.964844 537.835938 365.6875 539.292969 363.363281 C 540.753906 361.039062 542.136719 358.671875 543.449219 356.257812 C 544.757812 353.847656 545.992188 351.398438 547.148438 348.90625 C 548.304688 346.417969 549.382812 343.894531 550.382812 341.339844 C 551.378906 338.78125 552.296875 336.195312 553.132812 333.582031 C 553.96875 330.96875 554.722656 328.328125 555.394531 325.667969 C 556.0625 323.007812 556.648438 320.328125 557.152344 317.628906 C 557.652344 314.929688 558.070312 312.21875 558.402344 309.492188 C 558.734375 306.769531 558.980469 304.035156 559.140625 301.296875 C 559.300781 298.554688 559.375 295.8125 559.363281 293.070312 C 559.351562 290.324219 559.253906 287.582031 559.070312 284.84375 C 558.886719 282.105469 558.617188 279.375 558.261719 276.652344 C 557.90625 273.929688 557.464844 271.222656 556.941406 268.53125 C 556.414062 265.835938 555.804688 263.160156 555.113281 260.503906 C 554.421875 257.847656 553.644531 255.21875 552.785156 252.609375 C 551.925781 250.003906 550.988281 247.425781 549.96875 244.878906 C 548.949219 242.328125 547.847656 239.816406 546.671875 237.335938 C 545.492188 234.859375 544.238281 232.417969 542.90625 230.015625 C 541.574219 227.617188 540.171875 225.261719 538.691406 222.949219 C 537.210938 220.636719 535.664062 218.371094 534.042969 216.15625 C 532.421875 213.941406 530.730469 211.78125 528.972656 209.671875 C 527.21875 207.5625 525.394531 205.511719 523.511719 203.515625 C 521.625 201.523438 519.679688 199.589844 517.671875 197.71875 C 515.664062 195.84375 513.601562 194.039062 511.480469 192.292969 C 509.359375 190.550781 507.1875 188.878906 504.960938 187.269531 C 502.734375 185.664062 500.460938 184.128906 498.140625 182.664062 C 495.816406 181.203125 493.453125 179.8125 491.042969 178.496094 C 488.632812 177.183594 486.183594 175.945312 483.699219 174.78125 C 481.210938 173.621094 478.691406 172.539062 476.136719 171.535156 C 473.578125 170.53125 470.996094 169.609375 468.382812 168.769531 C 465.769531 167.929688 463.132812 167.171875 460.472656 166.496094 C 457.8125 165.820312 455.132812 165.230469 452.4375 164.722656 C 449.738281 164.214844 447.027344 163.792969 444.304688 163.453125 C 441.582031 163.117188 438.847656 162.867188 436.109375 162.699219 C 433.367188 162.535156 430.625 162.457031 427.882812 162.460938 Z M 427.882812 162.460938 " fill-opacity="1" fill-rule="nonzero"/></svg>