<svg xmlns="http://www.w3.org/2000/svg" xmlns:xlink="http://www.w3.org/1999/xlink" width="800" zoomAndPan="magnify" viewBox="0 0 600 599.999999" height="800" preserveAspectRatio="xMidYMid meet" version="1.0"><defs><g/><clipPath id="a58e25c03d"><path d="M 30 153.1875 L 570 153.1875 L 570 444 L 30 444 Z M 30 153.1875 " clip-rule="nonzero"/></clipPath></defs><g clip-path="url(#a58e25c03d)"><path fill="#8339c6" d="M 113.757812 410.226562 C 67.609375 410.226562 29.921875 372.511719 29.921875 326.390625 L 29.921875 237.355469 C 29.921875 191.203125 67.636719 153.515625 113.757812 153.515625 L 486.054688 153.515625 C 532.207031 153.515625 569.894531 191.230469 569.894531 237.355469 L 569.894531 326.390625 C 569.894531 372.539062 532.179688 410.226562 486.054688 410.226562 L 281.699219 410.226562 L 281.699219 429.75 C 281.699219 439.480469 272.945312 446.695312 261.304688 442.902344 L 160.226562 410.070312 C 148.902344 406.382812 148.902344 387.417969 160.226562 383.730469 L 261.304688 350.871094 C 272.945312 347.078125 281.699219 354.316406 281.699219 364.027344 L 281.699219 383.546875 L 486.054688 383.546875 C 517.484375 383.546875 543.265625 357.765625 543.265625 326.335938 L 543.265625 237.300781 C 543.265625 205.871094 517.484375 180.089844 486.054688 180.089844 L 113.757812 180.089844 C 82.328125 180.089844 56.550781 205.871094 56.550781 237.300781 L 56.550781 326.335938 C 56.550781 357.765625 82.328125 383.546875 113.757812 383.546875 Z M 113.757812 410.226562 " fill-opacity="1" fill-rule="nonzero"/></g><g fill="#ffffff" fill-opacity="1"><g transform="translate(105.484573, 285.904832)"><g><path d="M 4.96875 0 L 4.96875 -39.46875 L 13.34375 -39.46875 L 13.34375 -6.90625 L 29.34375 -6.90625 L 29.34375 0 Z M 4.96875 0 "/></g></g></g><g fill="#ffffff" fill-opacity="1"><g transform="translate(136.720294, 285.904832)"><g><path d="M 23.484375 0 L 21.890625 -4.109375 L 21.6875 -4.109375 C 20.300781 -2.359375 18.875 -1.144531 17.40625 -0.46875 C 15.9375 0.207031 14.023438 0.546875 11.671875 0.546875 C 8.765625 0.546875 6.476562 -0.28125 4.8125 -1.9375 C 3.15625 -3.59375 2.328125 -5.953125 2.328125 -9.015625 C 2.328125 -12.222656 3.445312 -14.585938 5.6875 -16.109375 C 7.925781 -17.628906 11.304688 -18.46875 15.828125 -18.625 L 21.0625 -18.796875 L 21.0625 -20.109375 C 21.0625 -23.171875 19.492188 -24.703125 16.359375 -24.703125 C 13.953125 -24.703125 11.117188 -23.972656 7.859375 -22.515625 L 5.125 -28.078125 C 8.601562 -29.898438 12.457031 -30.8125 16.6875 -30.8125 C 20.738281 -30.8125 23.84375 -29.925781 26 -28.15625 C 28.15625 -26.394531 29.234375 -23.710938 29.234375 -20.109375 L 29.234375 0 Z M 21.0625 -13.984375 L 17.875 -13.875 C 15.476562 -13.800781 13.691406 -13.367188 12.515625 -12.578125 C 11.347656 -11.785156 10.765625 -10.582031 10.765625 -8.96875 C 10.765625 -6.644531 12.097656 -5.484375 14.765625 -5.484375 C 16.671875 -5.484375 18.195312 -6.03125 19.34375 -7.125 C 20.488281 -8.226562 21.0625 -9.6875 21.0625 -11.5 Z M 21.0625 -13.984375 "/></g></g></g><g fill="#ffffff" fill-opacity="1"><g transform="translate(170.115787, 285.904832)"><g><path d="M 17.03125 -6.015625 C 18.476562 -6.015625 20.207031 -6.332031 22.21875 -6.96875 L 22.21875 -0.84375 C 20.164062 0.0820312 17.644531 0.546875 14.65625 0.546875 C 11.363281 0.546875 8.96875 -0.285156 7.46875 -1.953125 C 5.96875 -3.617188 5.21875 -6.117188 5.21875 -9.453125 L 5.21875 -24 L 1.265625 -24 L 1.265625 -27.484375 L 5.8125 -30.234375 L 8.1875 -36.609375 L 13.453125 -36.609375 L 13.453125 -30.1875 L 21.890625 -30.1875 L 21.890625 -24 L 13.453125 -24 L 13.453125 -9.453125 C 13.453125 -8.273438 13.78125 -7.40625 14.4375 -6.84375 C 15.09375 -6.289062 15.957031 -6.015625 17.03125 -6.015625 Z M 17.03125 -6.015625 "/></g></g></g><g fill="#ffffff" fill-opacity="1"><g transform="translate(194.116272, 285.904832)"><g><path d="M 16.828125 -24.890625 C 15.078125 -24.890625 13.707031 -24.335938 12.71875 -23.234375 C 11.726562 -22.128906 11.160156 -20.554688 11.015625 -18.515625 L 22.578125 -18.515625 C 22.535156 -20.554688 22 -22.128906 20.96875 -23.234375 C 19.945312 -24.335938 18.566406 -24.890625 16.828125 -24.890625 Z M 17.984375 0.546875 C 13.117188 0.546875 9.316406 -0.789062 6.578125 -3.46875 C 3.847656 -6.15625 2.484375 -9.957031 2.484375 -14.875 C 2.484375 -19.9375 3.75 -23.847656 6.28125 -26.609375 C 8.8125 -29.367188 12.304688 -30.75 16.765625 -30.75 C 21.035156 -30.75 24.359375 -29.535156 26.734375 -27.109375 C 29.109375 -24.679688 30.296875 -21.320312 30.296875 -17.03125 L 30.296875 -13.046875 L 10.828125 -13.046875 C 10.921875 -10.703125 11.613281 -8.875 12.90625 -7.5625 C 14.195312 -6.25 16.015625 -5.59375 18.359375 -5.59375 C 20.179688 -5.59375 21.898438 -5.78125 23.515625 -6.15625 C 25.140625 -6.53125 26.832031 -7.132812 28.59375 -7.96875 L 28.59375 -1.59375 C 27.15625 -0.875 25.613281 -0.335938 23.96875 0.015625 C 22.332031 0.367188 20.335938 0.546875 17.984375 0.546875 Z M 17.984375 0.546875 "/></g></g></g><g fill="#ffffff" fill-opacity="1"><g transform="translate(226.782825, 285.904832)"><g><path d="M 25.375 -8.96875 C 25.375 -5.863281 24.296875 -3.5 22.140625 -1.875 C 19.992188 -0.257812 16.78125 0.546875 12.5 0.546875 C 10.300781 0.546875 8.425781 0.394531 6.875 0.09375 C 5.332031 -0.195312 3.882812 -0.632812 2.53125 -1.21875 L 2.53125 -8.015625 C 4.0625 -7.296875 5.785156 -6.691406 7.703125 -6.203125 C 9.617188 -5.722656 11.304688 -5.484375 12.765625 -5.484375 C 15.753906 -5.484375 17.25 -6.347656 17.25 -8.078125 C 17.25 -8.722656 17.050781 -9.25 16.65625 -9.65625 C 16.257812 -10.0625 15.578125 -10.519531 14.609375 -11.03125 C 13.640625 -11.539062 12.34375 -12.140625 10.71875 -12.828125 C 8.394531 -13.796875 6.6875 -14.691406 5.59375 -15.515625 C 4.507812 -16.347656 3.71875 -17.300781 3.21875 -18.375 C 2.726562 -19.445312 2.484375 -20.765625 2.484375 -22.328125 C 2.484375 -25.015625 3.519531 -27.085938 5.59375 -28.546875 C 7.675781 -30.015625 10.625 -30.75 14.4375 -30.75 C 18.082031 -30.75 21.625 -29.957031 25.0625 -28.375 L 22.578125 -22.4375 C 21.054688 -23.082031 19.640625 -23.613281 18.328125 -24.03125 C 17.015625 -24.445312 15.675781 -24.65625 14.3125 -24.65625 C 11.882812 -24.65625 10.671875 -24 10.671875 -22.6875 C 10.671875 -21.945312 11.0625 -21.304688 11.84375 -20.765625 C 12.625 -20.222656 14.335938 -19.421875 16.984375 -18.359375 C 19.335938 -17.398438 21.0625 -16.503906 22.15625 -15.671875 C 23.257812 -14.847656 24.070312 -13.894531 24.59375 -12.8125 C 25.113281 -11.738281 25.375 -10.457031 25.375 -8.96875 Z M 25.375 -8.96875 "/></g></g></g><g fill="#ffffff" fill-opacity="1"><g transform="translate(254.265926, 285.904832)"><g><path d="M 17.03125 -6.015625 C 18.476562 -6.015625 20.207031 -6.332031 22.21875 -6.96875 L 22.21875 -0.84375 C 20.164062 0.0820312 17.644531 0.546875 14.65625 0.546875 C 11.363281 0.546875 8.96875 -0.285156 7.46875 -1.953125 C 5.96875 -3.617188 5.21875 -6.117188 5.21875 -9.453125 L 5.21875 -24 L 1.265625 -24 L 1.265625 -27.484375 L 5.8125 -30.234375 L 8.1875 -36.609375 L 13.453125 -36.609375 L 13.453125 -30.1875 L 21.890625 -30.1875 L 21.890625 -24 L 13.453125 -24 L 13.453125 -9.453125 C 13.453125 -8.273438 13.78125 -7.40625 14.4375 -6.84375 C 15.09375 -6.289062 15.957031 -6.015625 17.03125 -6.015625 Z M 17.03125 -6.015625 "/></g></g></g><g fill="#ffffff" fill-opacity="1"><g transform="translate(278.26641, 285.904832)"><g/></g></g><g fill="#ffffff" fill-opacity="1"><g transform="translate(292.628895, 285.904832)"><g><path d="M 37.09375 -39.46875 L 37.09375 -13.9375 C 37.09375 -11.019531 36.441406 -8.460938 35.140625 -6.265625 C 33.835938 -4.066406 31.953125 -2.378906 29.484375 -1.203125 C 27.015625 -0.0351562 24.097656 0.546875 20.734375 0.546875 C 15.660156 0.546875 11.71875 -0.753906 8.90625 -3.359375 C 6.101562 -5.960938 4.703125 -9.523438 4.703125 -14.046875 L 4.703125 -39.46875 L 13.046875 -39.46875 L 13.046875 -15.3125 C 13.046875 -12.269531 13.65625 -10.035156 14.875 -8.609375 C 16.101562 -7.191406 18.128906 -6.484375 20.953125 -6.484375 C 23.691406 -6.484375 25.675781 -7.195312 26.90625 -8.625 C 28.132812 -10.050781 28.75 -12.296875 28.75 -15.359375 L 28.75 -39.46875 Z M 37.09375 -39.46875 "/></g></g></g><g fill="#ffffff" fill-opacity="1"><g transform="translate(334.420486, 285.904832)"><g><path d="M 20.890625 0.546875 C 17.347656 0.546875 14.570312 -0.742188 12.5625 -3.328125 L 12.125 -3.328125 C 12.414062 -0.804688 12.5625 0.648438 12.5625 1.046875 L 12.5625 13.28125 L 4.3125 13.28125 L 4.3125 -30.1875 L 11.015625 -30.1875 L 12.171875 -26.265625 L 12.5625 -26.265625 C 14.476562 -29.253906 17.328125 -30.75 21.109375 -30.75 C 24.671875 -30.75 27.460938 -29.367188 29.484375 -26.609375 C 31.503906 -23.859375 32.515625 -20.035156 32.515625 -15.140625 C 32.515625 -11.921875 32.039062 -9.125 31.09375 -6.75 C 30.144531 -4.375 28.796875 -2.5625 27.046875 -1.3125 C 25.304688 -0.0703125 23.253906 0.546875 20.890625 0.546875 Z M 18.46875 -24.171875 C 16.4375 -24.171875 14.953125 -23.539062 14.015625 -22.28125 C 13.078125 -21.03125 12.59375 -18.96875 12.5625 -16.09375 L 12.5625 -15.203125 C 12.5625 -11.960938 13.039062 -9.640625 14 -8.234375 C 14.957031 -6.828125 16.484375 -6.125 18.578125 -6.125 C 22.265625 -6.125 24.109375 -9.164062 24.109375 -15.25 C 24.109375 -18.21875 23.65625 -20.445312 22.75 -21.9375 C 21.84375 -23.425781 20.414062 -24.171875 18.46875 -24.171875 Z M 18.46875 -24.171875 "/></g></g></g><g fill="#ffffff" fill-opacity="1"><g transform="translate(369.408795, 285.904832)"><g><path d="M 13.875 0.546875 C 10.332031 0.546875 7.546875 -0.828125 5.515625 -3.578125 C 3.492188 -6.335938 2.484375 -10.160156 2.484375 -15.046875 C 2.484375 -19.992188 3.515625 -23.847656 5.578125 -26.609375 C 7.640625 -29.367188 10.476562 -30.75 14.09375 -30.75 C 17.894531 -30.75 20.789062 -29.273438 22.78125 -26.328125 L 23.0625 -26.328125 C 22.644531 -28.578125 22.4375 -30.582031 22.4375 -32.34375 L 22.4375 -42.015625 L 30.703125 -42.015625 L 30.703125 0 L 24.375 0 L 22.78125 -3.921875 L 22.4375 -3.921875 C 20.5625 -0.941406 17.707031 0.546875 13.875 0.546875 Z M 16.765625 -6.015625 C 18.867188 -6.015625 20.410156 -6.625 21.390625 -7.84375 C 22.378906 -9.070312 22.914062 -11.15625 23 -14.09375 L 23 -14.984375 C 23 -18.222656 22.5 -20.546875 21.5 -21.953125 C 20.5 -23.359375 18.875 -24.0625 16.625 -24.0625 C 14.789062 -24.0625 13.363281 -23.28125 12.34375 -21.71875 C 11.332031 -20.164062 10.828125 -17.90625 10.828125 -14.9375 C 10.828125 -11.957031 11.335938 -9.722656 12.359375 -8.234375 C 13.390625 -6.753906 14.859375 -6.015625 16.765625 -6.015625 Z M 16.765625 -6.015625 "/></g></g></g><g fill="#ffffff" fill-opacity="1"><g transform="translate(404.397104, 285.904832)"><g><path d="M 23.484375 0 L 21.890625 -4.109375 L 21.6875 -4.109375 C 20.300781 -2.359375 18.875 -1.144531 17.40625 -0.46875 C 15.9375 0.207031 14.023438 0.546875 11.671875 0.546875 C 8.765625 0.546875 6.476562 -0.28125 4.8125 -1.9375 C 3.15625 -3.59375 2.328125 -5.953125 2.328125 -9.015625 C 2.328125 -12.222656 3.445312 -14.585938 5.6875 -16.109375 C 7.925781 -17.628906 11.304688 -18.46875 15.828125 -18.625 L 21.0625 -18.796875 L 21.0625 -20.109375 C 21.0625 -23.171875 19.492188 -24.703125 16.359375 -24.703125 C 13.953125 -24.703125 11.117188 -23.972656 7.859375 -22.515625 L 5.125 -28.078125 C 8.601562 -29.898438 12.457031 -30.8125 16.6875 -30.8125 C 20.738281 -30.8125 23.84375 -29.925781 26 -28.15625 C 28.15625 -26.394531 29.234375 -23.710938 29.234375 -20.109375 L 29.234375 0 Z M 21.0625 -13.984375 L 17.875 -13.875 C 15.476562 -13.800781 13.691406 -13.367188 12.515625 -12.578125 C 11.347656 -11.785156 10.765625 -10.582031 10.765625 -8.96875 C 10.765625 -6.644531 12.097656 -5.484375 14.765625 -5.484375 C 16.671875 -5.484375 18.195312 -6.03125 19.34375 -7.125 C 20.488281 -8.226562 21.0625 -9.6875 21.0625 -11.5 Z M 21.0625 -13.984375 "/></g></g></g><g fill="#ffffff" fill-opacity="1"><g transform="translate(437.792597, 285.904832)"><g><path d="M 17.03125 -6.015625 C 18.476562 -6.015625 20.207031 -6.332031 22.21875 -6.96875 L 22.21875 -0.84375 C 20.164062 0.0820312 17.644531 0.546875 14.65625 0.546875 C 11.363281 0.546875 8.96875 -0.285156 7.46875 -1.953125 C 5.96875 -3.617188 5.21875 -6.117188 5.21875 -9.453125 L 5.21875 -24 L 1.265625 -24 L 1.265625 -27.484375 L 5.8125 -30.234375 L 8.1875 -36.609375 L 13.453125 -36.609375 L 13.453125 -30.1875 L 21.890625 -30.1875 L 21.890625 -24 L 13.453125 -24 L 13.453125 -9.453125 C 13.453125 -8.273438 13.78125 -7.40625 14.4375 -6.84375 C 15.09375 -6.289062 15.957031 -6.015625 17.03125 -6.015625 Z M 17.03125 -6.015625 "/></g></g></g><g fill="#ffffff" fill-opacity="1"><g transform="translate(461.793082, 285.904832)"><g><path d="M 16.828125 -24.890625 C 15.078125 -24.890625 13.707031 -24.335938 12.71875 -23.234375 C 11.726562 -22.128906 11.160156 -20.554688 11.015625 -18.515625 L 22.578125 -18.515625 C 22.535156 -20.554688 22 -22.128906 20.96875 -23.234375 C 19.945312 -24.335938 18.566406 -24.890625 16.828125 -24.890625 Z M 17.984375 0.546875 C 13.117188 0.546875 9.316406 -0.789062 6.578125 -3.46875 C 3.847656 -6.15625 2.484375 -9.957031 2.484375 -14.875 C 2.484375 -19.9375 3.75 -23.847656 6.28125 -26.609375 C 8.8125 -29.367188 12.304688 -30.75 16.765625 -30.75 C 21.035156 -30.75 24.359375 -29.535156 26.734375 -27.109375 C 29.109375 -24.679688 30.296875 -21.320312 30.296875 -17.03125 L 30.296875 -13.046875 L 10.828125 -13.046875 C 10.921875 -10.703125 11.613281 -8.875 12.90625 -7.5625 C 14.195312 -6.25 16.015625 -5.59375 18.359375 -5.59375 C 20.179688 -5.59375 21.898438 -5.78125 23.515625 -6.15625 C 25.140625 -6.53125 26.832031 -7.132812 28.59375 -7.96875 L 28.59375 -1.59375 C 27.15625 -0.875 25.613281 -0.335938 23.96875 0.015625 C 22.332031 0.367188 20.335938 0.546875 17.984375 0.546875 Z M 17.984375 0.546875 "/></g></g></g></svg>